
<svg width="70px" height="70px" version="1.1" viewBox="0 0 363.02 363.02" xml:space="preserve" xmlns="http://www.w3.org/2000/svg"><path d="m181.51 363.02c-100.09 0-181.51-81.423-181.51-181.51 0-100.09 81.422-181.51 181.51-181.51 100.09 0 181.51 81.424 181.51 181.51 0 100.09-81.424 181.51-181.51 181.51zm0-351.31c-93.626 0-169.8 76.179-169.8 169.8 0 93.627 76.176 169.8 169.8 169.8 93.627 0 169.8-76.175 169.8-169.8 0-93.624-76.176-169.8-169.8-169.8z" fill="#030303"/><path d="m181.51 306.42c-68.876 0-124.91-56.031-124.91-124.91h11.71c0 62.418 50.782 113.2 113.2 113.2 62.424 0 113.21-50.781 113.21-113.2h11.71c1e-3 68.879-56.035 124.91-124.92 124.91z" fill="#030303"/><path d="m119.06 160.04c-13.995 0-25.376-11.376-25.376-25.371 0-13.992 11.382-25.376 25.376-25.376s25.371 11.385 25.371 25.376c-1e-3 13.995-11.377 25.371-25.371 25.371zm0-39.037c-7.537 0-13.666 6.132-13.666 13.666 0 7.531 6.129 13.661 13.666 13.661 7.531 0 13.66-6.13 13.66-13.661 0-7.533-6.13-13.666-13.66-13.666z" fill="#030303"/><path d="m243.97 160.04c-13.991 0-25.37-11.376-25.37-25.371 0-13.992 11.379-25.376 25.37-25.376 13.992 0 25.371 11.385 25.371 25.376 0 13.995-11.379 25.371-25.371 25.371zm0-39.037c-7.53 0-13.66 6.132-13.66 13.666 0 7.531 6.13 13.661 13.66 13.661 7.531 0 13.661-6.13 13.661-13.661 0-7.533-6.13-13.666-13.661-13.666z" fill="#030303"/></svg>
