<svg width="30px" height="30px" enable-background="new 0 0 512 512" fill="#000000" version="1.1" viewBox="0 0 512 512" xml:space="preserve" xmlns="http://www.w3.org/2000/svg"><path d="m256 0.5c-140.88 0-255.5 114.61-255.5 255.49 0 140.88 114.62 255.51 255.5 255.51 140.88 0 255.5-114.63 255.5-255.51 0-140.88-114.62-255.49-255.5-255.49zm-229.71 255.49c0-33.306 7.145-64.923 19.89-93.488l109.58 300.22c-76.642-37.227-129.47-115.82-129.47-206.74zm229.71 229.73c-22.547 0-44.309-3.307-64.898-9.361l68.932-200.27 70.604 193.45c0.466 1.135 1.035 2.179 1.646 3.165-23.878 8.404-49.536 13.024-76.284 13.024zm31.659-337.44c13.827-0.724 26.29-2.179 26.29-2.179 12.376-1.464 10.916-19.658-1.468-18.93 0 0-37.207 2.919-61.23 2.919-22.568 0-60.494-2.919-60.494-2.919-12.388-0.728-13.839 18.198-1.456 18.93 0 0 11.715 1.455 24.095 2.179l35.784 98.063-50.277 150.77-83.649-248.83c13.84-0.724 26.286-2.179 26.286-2.179 12.372-1.464 10.912-19.658-1.468-18.93 0 0-37.198 2.919-61.222 2.919-4.309 0-9.386-0.108-14.784-0.283 41.075-62.356 111.68-103.54 191.93-103.54 59.8 0 114.25 22.868 155.12 60.315-0.989-0.058-1.958-0.183-2.978-0.183-22.563 0-38.574 19.653-38.574 40.771 0 18.93 10.92 34.948 22.564 53.874 8.737 15.299 18.938 34.953 18.938 63.355 0 19.657-7.56 42.475-17.479 74.259l-22.917 76.554-83.016-246.93zm83.827 306.26 70.163-202.86c13.104-32.77 17.47-58.977 17.47-82.272 0-8.458-0.558-16.31-1.547-23.625 17.932 32.715 28.137 70.262 28.137 110.2 0 84.746-45.927 158.74-114.22 198.55z"></path></svg>